<?xml version="1.0" ?><!-- Created with Inkscape (http://www.inkscape.org/) --><!DOCTYPE svg  PUBLIC '-//W3C//DTD SVG 1.1//EN'  'http://www.w3.org/Graphics/SVG/1.1/DTD/svg11.dtd' [
	<!ENTITY stroke_color "#000000">
	<!ENTITY fill_color "#ffffff">
]><svg height="55" id="svg2" inkscape:version="0.48.3.1 r9886" sodipodi:docname="india.svg" version="1.1" width="55" xmlns="http://www.w3.org/2000/svg" xmlns:cc="http://creativecommons.org/ns#" xmlns:dc="http://purl.org/dc/elements/1.1/" xmlns:inkscape="http://www.inkscape.org/namespaces/inkscape" xmlns:rdf="http://www.w3.org/1999/02/22-rdf-syntax-ns#" xmlns:sodipodi="http://sodipodi.sourceforge.net/DTD/sodipodi-0.dtd" xmlns:svg="http://www.w3.org/2000/svg">
  <defs id="defs4"/>
  <sodipodi:namedview bordercolor="#666666" borderopacity="1.0" id="base" inkscape:current-layer="layer1" inkscape:cx="8.4352805" inkscape:cy="24.424583" inkscape:document-units="px" inkscape:pageopacity="0.0" inkscape:pageshadow="2" inkscape:window-height="744" inkscape:window-maximized="1" inkscape:window-width="1366" inkscape:window-x="0" inkscape:window-y="24" inkscape:zoom="5.6" pagecolor="#ffffff" showgrid="false"/>
  <metadata id="metadata7">
    <rdf:RDF>
      <cc:Work rdf:about="">
        <dc:format>image/svg+xml</dc:format>
        <dc:type rdf:resource="http://purl.org/dc/dcmitype/StillImage"/>
        <dc:title/>
      </cc:Work>
    </rdf:RDF>
  </metadata>
  <g id="layer1" inkscape:groupmode="layer" inkscape:label="Capa 1" transform="translate(0,-997.36218)">
    <path d="m 20.326329,1049.3494 c -0.427554,-0.2392 -0.780288,-0.9548 -1.332853,-2.704 -0.252867,-0.8004 -0.802138,-2.1926 -1.2206,-3.0935 -0.418461,-0.9011 -1.075521,-2.5157 -1.460133,-3.5881 -0.384611,-1.0725 -0.916716,-2.4814 -1.182454,-3.1311 -0.823518,-2.013 -1.056764,-3.6191 -1.152998,-7.9392 -0.07646,-3.4322 -0.132567,-4.0349 -0.398005,-4.2752 -0.49283,-0.446 -1.020976,-0.1737 -1.318211,0.6795 -0.507977,1.4582 -1.885707,1.5895 -3.2808241,0.3126 l -0.6200635,-0.5674 0.8371897,-0.531 c 0.9233619,-0.5855 1.2919259,-1.1053 1.1134789,-1.5704 -0.0983,-0.2562 -0.287787,-0.2849 -1.1887511,-0.1803 -1.0680697,0.1239 -1.0731256,0.1222 -1.4472251,-0.4914 -0.206476,-0.3387 -0.3757208,-0.6779 -0.3760993,-0.7539 -3.785e-4,-0.076 0.8122702,-0.1381 1.8058876,-0.1381 2.2840299,0 2.5162519,-0.1376 2.3932549,-1.4176 -0.05752,-0.5987 -0.253662,-1.1437 -0.557406,-1.5488 -0.257757,-0.3439 -0.530583,-0.8323 -0.606279,-1.0855 -0.07569,-0.2532 -0.295812,-0.6851 -0.4891467,-0.9596 -0.3480505,-0.4943 -0.3476617,-0.5031 0.039358,-0.89 0.3296407,-0.3298 0.5255487,-0.3726 1.2505267,-0.2736 0.695022,0.095 1.010725,0.036 1.64853,-0.3071 1.063425,-0.5722 4.189807,-4.1646 4.777308,-5.4894 0.247077,-0.5572 0.663774,-1.2393 0.925994,-1.516 0.410301,-0.4328 0.448134,-0.5658 0.271389,-0.9537 -0.112957,-0.2479 -0.659479,-0.7862 -1.214493,-1.1962 -0.555013,-0.4101 -1.06007,-0.9061 -1.122347,-1.1022 -0.06228,-0.1963 0.05711,-0.8625 0.265309,-1.4805 0.460546,-1.3671 0.360679,-1.8644 -0.507407,-2.5265 l -0.660261,-0.5037 0.724214,-0.3197 c 0.398318,-0.17585 1.071169,-0.32588 1.495226,-0.3334 0.679979,-0.0121 0.908314,0.10617 1.933866,1.0012 1.626685,1.4198 2.388027,1.6835 4.018239,1.3921 1.93442,-0.3457 2.059757,-0.1352 0.851938,1.4304 -0.989575,1.2826 -1.094594,1.6796 -0.641424,2.4248 0.353033,0.5805 0.353004,0.581 -0.02981,0.4595 -0.598203,-0.1899 -0.918132,0.2197 -0.91736,1.1745 9.21e-4,1.1412 0.468748,1.8541 1.817945,2.7704 0.607952,0.4129 1.153113,0.8279 1.211469,0.9223 0.05836,0.095 -0.06501,0.6059 -0.274145,1.1364 -0.648894,1.6462 -0.578764,1.7569 1.940575,3.0605 1.784973,0.9236 2.379603,1.145 3.091099,1.151 0.552352,0 1.206496,0.1726 1.753665,0.4498 1.408731,0.7138 3.151904,1.2148 4.256407,1.2231 0.964738,0.01 1.053296,0.046 1.426309,0.6323 0.345503,0.5425 0.364404,0.6684 0.14399,0.9592 -0.349001,0.4604 -0.326566,0.8532 0.08948,1.5673 0.314484,0.5397 0.934328,2.5671 0.934328,3.0561 0,0.1011 -0.22792,0.2393 -0.506488,0.3074 -1.094725,0.2673 -1.924956,1.0583 -2.550151,2.4294 -0.574721,1.2605 -0.638893,1.3289 -1.519698,1.6215 -0.581514,0.1931 -1.038291,0.488 -1.242351,0.802 -0.415038,0.6386 -5.166725,5.3773 -5.392067,5.3773 -0.239895,0 -2.665825,1.4831 -2.829977,1.7301 -0.07443,0.112 -0.136711,1.0326 -0.138419,2.0455 -0.0019,1.0788 -0.160914,2.6736 -0.384064,3.8499 -0.209527,1.1044 -0.335192,2.1905 -0.279255,2.4133 0.07582,0.302 -0.09671,0.6183 -0.677778,1.2421 -0.428715,0.4602 -1.319252,1.419 -1.978971,2.1307 -0.98233,1.0598 -1.257421,1.2616 -1.51947,1.1149 l 0,0 z" id="path3851" inkscape:connector-curvature="0" style="fill:&fill_color;;fill-opacity:1;fill-rule:nonzero;stroke:&stroke_color;;stroke-width:1.54709303;stroke-linejoin:round;stroke-miterlimit:4;stroke-opacity:1;stroke-dasharray:none"/>
    <path d="m 43.593555,1023.2715 c -0.257236,-1.0722 -0.634357,-1.5296 -0.977979,-1.186 -0.117264,0.1173 -0.289156,0.2132 -0.381981,0.2132 -0.09283,0 0.13095,-0.3317 0.497279,-0.7372 0.902239,-0.9986 0.894476,-1.5763 -0.02461,-1.8316 -0.379867,-0.1055 -1.146507,-0.1933 -1.703644,-0.1953 -1.44385,0 -1.790707,-0.1396 -2.01437,-0.7812 -0.10767,-0.3088 -0.195763,-0.632 -0.195763,-0.7182 0,-0.086 0.629526,-0.1567 1.398946,-0.1567 1.133168,0 1.503849,-0.074 1.951118,-0.3932 0.466621,-0.3323 0.540735,-0.4911 0.478352,-1.0255 -0.06807,-0.583 0.02017,-0.714 1.133859,-1.683 1.73229,-1.5071 1.734783,-1.5087 2.82183,-1.7613 l 0.989408,-0.23 0.906413,0.8206 0.906414,0.8206 -0.821505,0.6669 c -1.993274,1.6181 -2.005484,1.6359 -2.402334,3.5216 -0.453333,2.1541 -0.629132,2.5785 -1.067964,2.5785 -0.561607,0 -0.952236,0.6015 -0.966328,1.4879 -0.0071,0.4479 -0.07712,0.9786 -0.155547,1.1794 -0.11355,0.2907 -0.189253,0.1706 -0.371592,-0.5895 z" id="path3853" inkscape:connector-curvature="0" style="fill:&fill_color;;fill-opacity:1;fill-rule:nonzero;stroke:&stroke_color;;stroke-width:1.54709303;stroke-linejoin:round;stroke-miterlimit:4;stroke-opacity:1;stroke-dasharray:none"/>
    <path d="" id="path3855" inkscape:connector-curvature="0" style="fill:#00ff00;fill-opacity:1;fill-rule:nonzero;stroke:&stroke_color;;stroke-width:0.08928572;stroke-linejoin:round;stroke-miterlimit:4;stroke-opacity:1;stroke-dasharray:none" transform="translate(0,997.36218)"/>
    <path d="m 25.259467,1050.4824 c -0.190758,-0.2108 -0.372287,-0.7672 -0.42323,-1.2975 -0.09003,-0.937 0.255853,-3.0614 0.52558,-3.2281 0.393724,-0.2433 1.81645,2.361 1.823427,3.338 0.0074,1.0357 -1.321516,1.8554 -1.925777,1.1876 l 0,0 z" id="path3857" inkscape:connector-curvature="0" style="fill:&fill_color;;fill-opacity:1;fill-rule:nonzero;stroke:&stroke_color;;stroke-width:1.54709303;stroke-linejoin:round;stroke-miterlimit:4;stroke-opacity:1;stroke-dasharray:none"/>
  </g>
</svg>