<?xml version="1.0" ?><!-- Created with Inkscape (http://www.inkscape.org/) --><!DOCTYPE svg  PUBLIC '-//W3C//DTD SVG 1.1//EN'  'http://www.w3.org/Graphics/SVG/1.1/DTD/svg11.dtd' [
	<!ENTITY stroke_color "#666666">
	<!ENTITY fill_color "#ffffff">
]><svg height="55" id="svg2" inkscape:version="0.47 r22583" sodipodi:docname="prueba04.sugar.svg" version="1.1" width="55" xmlns="http://www.w3.org/2000/svg" xmlns:cc="http://creativecommons.org/ns#" xmlns:dc="http://purl.org/dc/elements/1.1/" xmlns:inkscape="http://www.inkscape.org/namespaces/inkscape" xmlns:rdf="http://www.w3.org/1999/02/22-rdf-syntax-ns#" xmlns:sodipodi="http://sodipodi.sourceforge.net/DTD/sodipodi-0.dtd" xmlns:svg="http://www.w3.org/2000/svg">
  <defs id="defs4">
    <inkscape:perspective id="perspective10" inkscape:persp3d-origin="372.04724 : 350.78739 : 1" inkscape:vp_x="0 : 526.18109 : 1" inkscape:vp_y="0 : 1000 : 0" inkscape:vp_z="744.09448 : 526.18109 : 1" sodipodi:type="inkscape:persp3d"/>
    <inkscape:perspective id="perspective2824" inkscape:persp3d-origin="0.5 : 0.33333333 : 1" inkscape:vp_x="0 : 0.5 : 1" inkscape:vp_y="0 : 1000 : 0" inkscape:vp_z="1 : 0.5 : 1" sodipodi:type="inkscape:persp3d"/>
  </defs>
  <sodipodi:namedview bordercolor="#666666" borderopacity="1.0" id="base" inkscape:current-layer="layer1" inkscape:cx="-5.8526158" inkscape:cy="18.222284" inkscape:document-units="px" inkscape:pageopacity="0.0" inkscape:pageshadow="2" inkscape:window-height="706" inkscape:window-maximized="1" inkscape:window-width="1366" inkscape:window-x="-8" inkscape:window-y="-8" inkscape:zoom="5.6" pagecolor="#ffffff" showgrid="false"/>
  <metadata id="metadata7">
    <rdf:RDF>
      <cc:Work rdf:about="">
        <dc:format>image/svg+xml</dc:format>
        <dc:type rdf:resource="http://purl.org/dc/dcmitype/StillImage"/>
        <dc:title/>
      </cc:Work>
    </rdf:RDF>
  </metadata>
  <g id="layer1" inkscape:groupmode="layer" inkscape:label="Capa 1" transform="translate(0,-997.36218)">
    <path d="m 24.816051,1001.5836 c 0.447108,-0.7301 0.381751,0.7222 0,0 z m -1.123418,0.753 c -0.16796,-0.4486 -0.84182,-0.3914 -0.778331,-1.0713 0.221496,-0.7296 0.443944,0.528 1.150572,0.1238 0.01311,0.3525 0.08992,1.7576 -0.372241,0.9475 z m 2.639538,-1.8765 c 0.416115,-0.74413 0.398451,0.7111 0,0 z m 0.372242,0.3707 c 0.44414,-0.90533 0.57214,0.86 0,0 z m -0.372242,1.895 c 0.444136,-0.9052 0.572133,0.86 0,0 z m -1.895055,-1.5229 c 0.444136,-0.9052 0.572134,0.86 0,0 z m 4.162353,3.4009 c -0.175394,-0.4299 -0.811562,-0.399 -0.744485,-1.0713 -0.133665,-0.1567 -0.830606,-0.9764 -0.03383,-0.993 0.140145,0.4914 0.446807,0.8161 1.149871,0.7447 -0.09795,0.6733 0.90087,0.25 0.948228,0.7781 0.65754,0.4232 -0.09972,1.0307 -0.806062,0.7447 -0.187871,-0.074 -0.642667,0.1852 -0.513711,-0.2032 l -1.1e-5,0 z m 7.952463,-1.878 c 0.310556,-0.3624 0.636144,-0.7094 1.459841,-0.5584 0.426757,0.7873 -0.40175,0.8444 -1.069977,0.7445 -0.162335,-0.057 -0.509642,0.1514 -0.389864,-0.1861 z m -7.88779,19.6485 c -0.07667,0.2989 1.374393,0.3676 1.320711,-0.07 -0.03779,-0.308 -1.316958,-0.2296 -1.320711,0.07 z m 5.264732,-17.0155 c -0.555889,-0.782 -1.451859,-1.2767 -1.835412,-2.1407 -0.751445,-0.8322 -1.414092,-1.6591 -2.293101,-2.2586 -0.563905,-0.5443 -1.834708,-1.23393 -0.338405,-1.75983 1.004921,-0.6331 2.55243,-0.069 3.509722,0.6769 -0.294677,1.49813 2.69429,1.40233 1.693643,2.36093 -1.064444,0.6408 0.82481,3.8658 -0.736447,3.1213 z m -8.663107,21.6578 c -0.952655,-0.6312 -1.015541,-2.441 -2.590898,-2.1081 -1.108799,-0.6187 -2.260366,-1.0071 -3.500351,-1.479 -1.63117,-0.3147 -1.356066,-2.2232 -1.692015,-3.5194 -1.050267,-0.6987 -0.433835,-2.5761 -1.69201,-2.978 -0.608293,0.1406 -0.707188,1.5407 -0.810194,-0.021 0.105231,-1.6936 -1.284287,-3.1302 -0.272698,-4.6487 0.286794,-1.3531 1.403076,-2.0898 1.285931,-3.5871 0.222873,-1.5073 0.568016,-3.6306 -0.262686,-4.9487 -0.42741,-1.0858 -1.461799,-1.6848 -2.647575,-1.7517 0.629466,-0.9156 1.252426,-1.98193 2.671265,-1.7976 0.471878,-0.68933 1.719538,-1.51733 2.404775,-0.57123 1.058744,0.42123 1.030742,1.71723 1.723736,2.46403 1.667009,-0.1903 1.41101,1.8038 2.878538,2.0029 0.346448,-1.4771 1.361566,0.7953 2.583141,0.041 1.295043,0.6127 -0.52235,1.2179 -0.950769,1.7942 -1.296859,0.8685 -0.626612,2.5666 0.804126,2.7669 0.690733,0.485 1.470151,0.9774 1.854871,1.7835 1.242971,0.6638 0.88309,-0.744 0.920031,-1.4986 0,-0.9973 0,-1.9948 0,-2.9923 1.348056,-0.074 1.212289,1.6805 2.71734,1.2184 0.476139,0.1857 -0.358447,1.6823 0.496787,1.489 1.11589,-0.1181 1.500086,1.1285 2.289148,1.613 0.34272,0.9997 0.513864,1.778 -0.57063,0.8991 -0.547386,-1.2727 -1.726998,-1.0198 -1.683978,0.3982 -0.146129,1.2168 -1.302192,1.5034 -2.098094,2.3687 -1.652941,0.192 -0.176964,2.5572 -1.632373,3.0377 -1.164334,0.2301 -2.138669,1.3941 -0.796091,2.301 0.849501,1.8326 -0.703916,0.1428 -1.023247,-0.6688 -1.471975,-0.1196 -2.91272,-0.9294 -4.230032,-0.1522 -0.852055,0.8754 -0.914415,2.0576 -1.184408,3.1979 -0.253684,1.3908 1.838025,2.4387 2.766864,1.4133 1.078141,-1.8031 0.07694,1.1699 0.988705,1.1585 1.347606,-0.4085 0.577027,1.1436 1.117426,1.8274 0.186602,0.7435 2.256083,1.1741 0.259446,1.1041 l -0.09447,-0.063 -0.02961,-0.093 0,0 -1e-6,-4e-4 z m 3.556207,23.632 c -0.778868,-0.3865 -2.863223,-1.214 -1.187575,-2.0007 0.229866,-1.3687 -0.594012,-2.1206 0.500969,-3.0563 0.150882,-1.4766 0.40914,-2.8876 1.053514,-4.0573 -0.40565,-1.5408 1.136142,-3.0785 -0.02046,-4.2945 -0.772206,-0.5513 -1.953941,-0.8238 -2.647578,-1.2663 0.08626,-1.0459 -0.04279,-2.201 -1.023245,-2.643 -0.972035,-0.9113 -0.05009,-2.3298 0.346437,-3.2567 1.229404,-0.8198 -0.09584,-3.3941 1.793535,-3.5025 0.787939,-1.7773 1.777557,-0.089 3.274047,-0.3462 1.039296,0.3013 1.938119,0.6498 2.569039,1.5741 1.545104,-0.2504 2.8644,0.5335 3.090748,1.7443 -1.548418,1.699 1.245407,1.4603 2.208075,0.8777 1.546379,-0.085 2.560425,0.9326 3.9297,1.2972 0.258422,1.3284 -1.278612,1.7798 -1.800251,2.7095 0.0616,1.6134 -0.531838,3.2101 -1.453911,4.2333 -1.567518,-0.1372 -2.493887,1.0058 -2.917456,2.3091 -0.163008,1.1916 -1.642014,1.1772 -2.376855,1.9547 -0.498917,0.7837 -1.483109,0.7731 -1.506316,1.8269 -1.268473,0.1656 -2.416941,0.8923 -3.047737,1.9353 0.16214,1.3705 -2.122826,2.1633 -0.74491,3.4281 0.289522,0.2927 1.270172,1.1424 -0.03977,0.5333 z" id="path2856" sodipodi:nodetypes="cccccccccccccccccccscccccccsccccccccccccccccccccccccccccccccccccccccccccccccccccccccccccccccccccc" style="fill:&fill_color;;fill-opacity:1;fill-rule:nonzero;stroke:&stroke_color;;stroke-width:2;stroke-miterlimit:4;stroke-opacity:1;stroke-dasharray:none"/>
  </g>
</svg>